PathFileType	4	(X/Y/Z)	..\data\2015035\dynamic\2015035_C4_03.trc
DataRate	CameraRate	NumFrames	NumMarkers	Units	OrigDataRate	OrigDataStartFrame	OrigNumFrames
100.000000	100.000000	4	52	mm	100.000000	44	179
Frame#	Time	L_IAS			L_IPS			R_IPS			R_IAS			L_FTC			L_FLE			L_FME			L_FAX			L_TTC			L_FAL			L_TAM			L_FCC			L_FM1			L_FM2			L_FM5			R_FTC			R_FLE			R_FME			R_FAX			R_TTC			R_FAL			R_TAM			R_FCC			R_FM1			R_FM2			R_FM5			CV7			TV10			SXS			SJN			L_SIA			L_SRS			L_SAA			L_SAE			L_HLE			L_HME			L_UOA			L_RSP			L_UHE			L_HM2			L_HM5			R_SIA			R_SRS			R_SAA			R_SAE			R_HLE			R_HME			R_UOA			R_RSP			R_UHE			R_HM2			R_HM5			
		X1	Y1	Z1	X2	Y2	Z2	X3	Y3	Z3	X4	Y4	Z4	X5	Y5	Z5	X6	Y6	Z6	X7	Y7	Z7	X8	Y8	Z8	X9	Y9	Z9	X10	Y10	Z10	X11	Y11	Z11	X12	Y12	Z12	X13	Y13	Z13	X14	Y14	Z14	X15	Y15	Z15	X16	Y16	Z16	X17	Y17	Z17	X18	Y18	Z18	X19	Y19	Z19	X20	Y20	Z20	X21	Y21	Z21	X22	Y22	Z22	X23	Y23	Z23	X24	Y24	Z24	X25	Y25	Z25	X26	Y26	Z26	X27	Y27	Z27	X28	Y28	Z28	X29	Y29	Z29	X30	Y30	Z30	X31	Y31	Z31	X32	Y32	Z32	X33	Y33	Z33	X34	Y34	Z34	X35	Y35	Z35	X36	Y36	Z36	X37	Y37	Z37	X38	Y38	Z38	X39	Y39	Z39	X40	Y40	Z40	X41	Y41	Z41	X42	Y42	Z42	X43	Y43	Z43	X44	Y44	Z44	X45	Y45	Z45	X46	Y46	Z46	X47	Y47	Z47	X48	Y48	Z48	X49	Y49	Z49	X50	Y50	Z50	X51	Y51	Z51	X52	Y52	Z52	

45	0.44	304.5167846679688	971.9548339843752	-367.1522216796876	106.9660263061524	996.6107177734377	-275.7756652832032	106.8096694946289	984.672058105469	-191.1644439697266	288.0437622070313	974.7026977539065	-100.4521255493164	208.525863647461	904.796081542969	-417.8789978027345	165.8692626953125	469.348114013672	-378.7175598144532	148.3231964111328	486.2078857421876	-238.3055877685547	146.2325439453125	421.2647399902345	-377.6058654785157	204.3985595703126	391.9945678710939	-319.0843811035157	83.16101837158205	61.33641052246095	-325.8837890625001	106.1091003417969	81.72934722900392	-232.5600280761719	34.86760330200196	27.79405021667481	-274.1191406250001	229.2857055664063	21.48149108886719	-236.1228332519532	236.8046569824219	32.46519088745118	-297.1201782226563	192.7918701171876	13.76181983947754	-349.5321655273438	224.2847137451172	881.4117431640627	-45.08616256713868	391.4462890625001	493.8316345214845	-66.13790130615236	409.7647705078126	495.2689208984376	-189.8633575439453	364.4053344726563	451.8922729492189	-69.10751342773439	432.5167846679689	422.7787475585939	-107.7952423095703	261.6453857421876	105.1687240600586	-102.3716506958008	322.1116638183594	114.80712890625	-180.0342712402344	234.1270294189454	66.48122406005861	-155.6957702636719	416.9422912597657	30.7783374786377	-154.2697448730469	417.5874023437501	47.72880172729493	-103.8035049438477	358.9380493164063	33.74497604370118	-61.22744750976564	134.375228881836	1501.098266601563	-260.0032348632813	77.13473510742189	1209.307739257813	-246.2075653076172	323.4235229492188	1242.846313476563	-245.7259368896485	271.2997131347657	1411.53466796875	-251.3384552001954	75.92757415771486	1284.185180664063	-374.5601501464844	99.21594238281253	1429.478149414063	-352.8354797363282	178.5272064208985	1421.704711914063	-446.0506286621095	228.3166046142579	1424.954223632813	-447.5145568847657	292.2298278808594	1127.360717773438	-532.3853759765626	247.923812866211	1095.31982421875	-454.5965576171876	254.3034973144532	1082.272705078125	-511.7177124023439	483.0071716308595	942.212829589844	-457.6303100585939	451.4211730957032	917.4666137695315	-524.2274169921876	550.1464233398439	886.3552246093752	-453.2157287597657	483.0427856445314	843.7329711914065	-522.5301513671876	62.06748962402345	1290.32177734375	-126.7715911865235	96.81923675537112	1436.261596679688	-157.1119232177735	166.8639526367188	1427.922119140625	-55.5938186645508	218.5205841064454	1424.13330078125	-44.55081176757813	165.0714416503907	1130.819458007813	45.99289321899415	116.5922546386719	1125.064819335938	-33.76021194458009	116.0017929077149	1105.800537109375	28.91420555114747	267.4318542480469	877.8709716796877	-6.014792919158937	217.3288269042969	870.5228271484377	53.1964454650879	299.0064697265626	790.6018066406252	-4.808547496795655	215.0523834228516	803.2635498046877	60.02726364135744	
46	0.45	314.7423400878907	970.1804809570315	-366.7752380371094	117.2760925292969	995.2772216796877	-274.9705810546876	117.1864547729492	983.0928344726565	-190.480941772461	298.3805847167969	973.1177978515627	-99.83184051513675	217.9665832519532	903.571228027344	-417.3944091796876	168.4382629394532	469.3683166503907	-378.6813659667969	151.5484313964844	486.4382934570314	-238.1624755859376	148.2932739257813	421.4828186035157	-377.4214172363282	206.3922119140626	391.5481262207032	-319.1783142089844	83.2578582763672	61.78809738159181	-325.2013549804688	106.6073074340821	82.16039276123048	-232.0018310546876	34.96994781494141	28.45480537414551	-273.1607360839844	229.6458892822266	21.42758178710938	-236.1128997802735	236.8624114990235	32.39600372314454	-297.1759643554688	192.5437622070313	13.82468891143799	-349.3653259277344	234.4983062744141	879.802185058594	-44.59502792358399	404.2139587402345	492.5357055664064	-67.49725341796876	421.4079895019532	494.613006591797	-191.3233032226563	378.8246459960938	449.5695800781251	-70.4799270629883	448.0831909179689	423.499237060547	-109.2635116577149	295.6067810058594	97.61104583740237	-102.2437820434571	355.4781188964844	110.1326751708985	-179.8929443359375	270.6145935058594	56.93287658691408	-155.5241851806641	454.961395263672	31.58681106567384	-153.4642028808594	454.4578857421876	48.49139404296876	-103.066650390625	396.4746093750001	31.61989212036134	-60.5360450744629	144.9738922119141	1499.665161132813	-259.7205505371094	87.56670379638673	1207.874389648438	-245.9252319335938	333.7429504394532	1241.310180664063	-245.3790283203126	281.7355651855469	1409.972900390625	-250.8551635742188	86.73685455322267	1282.799438476563	-374.5446777343751	109.9912643432617	1428.114624023438	-352.7160339355469	189.5038452148438	1420.324951171875	-445.713348388672	239.2929687500001	1423.669555664063	-447.0145568847657	305.5702514648438	1127.060302734375	-532.9208984375001	261.5469360351563	1094.470458984375	-455.3680114746095	268.5373229980469	1080.994873046875	-512.2714233398439	500.8912963867189	947.6971435546877	-455.9266662597657	470.0745239257814	921.2442016601565	-522.2340698242189	569.9988403320314	894.4265136718752	-451.0960388183595	503.9716186523439	848.525329589844	-519.4849853515626	72.10450744628908	1288.764282226563	-126.9081497192383	107.1067047119141	1434.814086914063	-157.0102081298828	176.899887084961	1426.108154296875	-55.30986404418947	228.5521697998047	1422.207885742188	-44.14765930175782	174.2913970947266	1128.887573242188	45.75788879394532	126.147216796875	1123.250732421875	-34.19834899902344	125.2495269775391	1103.96533203125	28.44658470153809	275.9890441894532	875.9192504882815	-6.071657180786135	226.0467681884766	868.5292968750002	53.04547500610353	307.4818420410157	788.4702148437502	-4.688512802124024	223.6242828369141	801.2813720703127	59.8400230407715	
47	0.46	324.9150085449219	968.3386230468752	-366.3957824707032	127.6134872436524	993.7968750000002	-274.1138000488282	127.6174240112305	981.3493652343752	-189.7601165771485	308.7967529296876	971.3043212890627	-99.19001770019534	227.4245758056641	902.2537231445315	-416.8958435058595	171.3783416748047	469.3293762207032	-378.5725402832032	155.2706756591797	486.5585327148439	-237.9782714843751	150.7167510986328	421.6504821777345	-377.1679687500001	208.7373504638672	391.0075683593751	-319.2318420410157	83.38398742675783	62.2662696838379	-324.4503479003907	107.1736145019532	82.57585906982423	-231.3716888427735	35.13193893432618	29.15514564514161	-272.1189880371094	230.0085754394532	21.365140914917	-236.0945587158204	236.878158569336	32.30578231811524	-297.2111511230469	192.240707397461	13.91010665893555	-349.1612854003907	244.6971740722657	877.878356933594	-44.12377548217774	416.404266357422	490.8487243652345	-68.83805084228517	432.5392150878907	493.5300598144532	-192.7586364746094	392.7362365722657	446.9979858398439	-71.84118652343751	463.0498352050782	423.9844055175782	-110.6791076660157	329.5110778808594	90.89463043212892	-102.0778732299805	388.5985412597657	106.2638244628907	-179.6355590820313	307.0871887207032	48.42224121093751	-155.3317413330078	492.3801269531251	33.3280372619629	-152.5137939453125	490.7288208007814	50.1471633911133	-102.1853866577149	433.5204162597657	30.48067855834962	-59.74516677856447	155.6168670654297	1498.079956054688	-259.3492431640626	98.04704284667972	1206.291259765625	-245.4838409423829	344.0928649902344	1239.6181640625	-244.9888000488282	292.2340393066407	1408.241943359375	-250.2997436523438	97.53093719482425	1281.242553710938	-374.3369445800782	120.8020935058594	1426.604125976563	-352.4801330566407	200.527328491211	1418.764282226563	-445.2707519531251	250.2889251708985	1422.200927734375	-446.4329528808595	318.7617492675782	1126.567993164063	-533.3637084960939	274.8311157226563	1093.520385742188	-456.161102294922	282.6127624511719	1079.568115234375	-512.7558593750001	518.2900390625001	952.9656372070315	-454.1455383300782	488.347869873047	924.8997802734377	-520.1981811523439	589.2559204101564	902.2644042968752	-448.8863220214845	524.4252319335939	853.2470703125002	-516.4180297851564	82.2737503051758	1287.052001953125	-126.8830184936524	117.4792098999024	1433.230224609375	-156.7906494140625	187.0399322509766	1424.13623046875	-54.92137145996095	238.6885375976563	1420.134033203125	-43.66307449340821	183.7161712646485	1126.767211914063	45.57133102416993	135.9118194580078	1121.23291015625	-34.58972930908204	134.7118072509766	1101.929077148438	28.02296447753907	284.8031311035157	873.8201904296877	-6.070015907287599	235.0385284423829	866.367614746094	52.9515724182129	316.2942199707032	786.1697998046877	-4.497082710266114	232.4776153564454	799.140808105469	59.7199172973633	
48	0.47	335.0351257324219	966.4481201171877	-366.0344543457032	137.9869384765625	992.2004394531252	-273.1956176757813	138.1217346191407	979.477722167969	-188.9879913330078	319.3245544433594	969.284606933594	-98.55700683593753	236.8822479248047	900.868347167969	-416.3798828125001	174.7250213623047	469.226287841797	-378.3944702148438	159.5616455078125	486.5605468750001	-237.7527770996094	153.5404357910157	421.7651672363282	-376.8498229980469	211.4695739746094	390.3730773925782	-319.2502136230469	83.54715728759767	62.77743911743165	-323.6548461914063	107.8155746459961	82.98146057128908	-230.6902160644532	35.35453414916993	29.91053771972657	-271.0294189453126	230.3678283691407	21.30483436584473	-236.0765686035157	236.8606719970704	32.20077514648438	-297.2279052734376	191.8963928222657	14.01997566223145	-348.9281616210938	254.9308471679688	875.6875000000002	-43.66956329345704	428.0862426757814	488.8162231445314	-70.14865875244142	443.1859436035157	492.0545349121095	-194.1636352539063	406.1783447265626	444.2158813476564	-73.16638183593751	477.4354858398439	424.2530212402345	-112.0456085205078	363.1398010253907	85.0711135864258	-101.8885879516602	421.2536926269532	103.2447052001953	-179.2959289550782	343.2763366699219	41.01973724365235	-155.1238403320313	528.9722900390626	35.99294662475587	-151.5088195800782	526.2074584960939	52.69602203369142	-101.2547454833985	469.8806457519532	30.33324623107911	-58.92532348632814	166.310043334961	1496.364135742188	-258.8713073730469	108.5833206176758	1204.581176757813	-244.8852081298829	354.4855041503907	1237.79443359375	-244.5612792968751	302.7981262207032	1406.369262695313	-249.6703186035157	108.3096389770508	1279.543090820313	-373.9332580566407	131.6411437988282	1424.972045898438	-352.1174316406251	211.5838623046876	1417.05517578125	-444.718231201172	261.2962341308594	1420.581298828125	-445.7656555175782	331.8045043945313	1125.909057617188	-533.6926879882814	287.8046875000001	1092.47509765625	-456.9234619140626	296.5254211425782	1078.022827148438	-513.1465454101564	535.1959838867189	957.9888305664065	-452.3037719726564	506.2090454101564	928.4136962890627	-518.1318969726564	607.8978271484376	909.7984008789065	-446.6024780273439	544.3585815429689	857.8660278320315	-513.3601074218751	92.58621215820314	1285.186767578125	-126.6960220336914	127.9376983642578	1431.520263671875	-156.4486083984375	197.2801971435547	1422.0302734375	-54.42758560180665	248.9271240234376	1417.938232421875	-43.09002685546876	193.3361206054688	1124.483642578125	45.44309997558594	145.8811492919922	1119.036865234375	-34.92488479614259	144.3814849853516	1099.716552734375	27.65307617187501	293.8981628417969	871.5952148437502	-5.999629497528077	244.3054504394532	864.0615234375002	52.91754531860353	325.4679260253907	783.7332153320315	-4.234840393066407	241.6155395507813	796.8635864257815	59.66402816772462	
